<?xml version="1.0" encoding="UTF-8" standalone="no"?>
<!-- Created with Inkscape (http://www.inkscape.org/) -->

<svg
   xmlns:dc="http://purl.org/dc/elements/1.1/"
   xmlns:cc="http://creativecommons.org/ns#"
   xmlns:rdf="http://www.w3.org/1999/02/22-rdf-syntax-ns#"
   xmlns:svg="http://www.w3.org/2000/svg"
   xmlns="http://www.w3.org/2000/svg"
   xmlns:sodipodi="http://sodipodi.sourceforge.net/DTD/sodipodi-0.dtd"
   xmlns:inkscape="http://www.inkscape.org/namespaces/inkscape"
   width="32.210739"
   height="43.59853"
   version="1.1"
   id="svg8"
   inkscape:version="0.92.3 (2405546, 2018-03-11)"
   sodipodi:docname="logo.svg">
  <defs
     id="defs2">
    <marker
       inkscape:stockid="Arrow1Lend"
       orient="auto"
       refY="0"
       refX="0"
       id="Arrow1Lend"
       style="overflow:visible"
       inkscape:isstock="true">
      <path
         id="path4670"
         d="M 0,0 5,-5 -12.5,0 5,5 Z"
         style="fill-rule:evenodd;stroke:#000000;stroke-width:1.00000003pt"
         transform="matrix(-0.8,0,0,-0.8,-10,0)"
         inkscape:connector-curvature="0" />
    </marker>
    <marker
       inkscape:stockid="Arrow1Lstart"
       orient="auto"
       refY="0"
       refX="0"
       id="Arrow1Lstart"
       style="overflow:visible"
       inkscape:isstock="true">
      <path
         id="path4667"
         d="M 0,0 5,-5 -12.5,0 5,5 Z"
         style="fill-rule:evenodd;stroke:#000000;stroke-width:1.00000003pt"
         transform="matrix(0.8,0,0,0.8,10,0)"
         inkscape:connector-curvature="0" />
    </marker>
  </defs>
  <sodipodi:namedview
     id="base"
     pagecolor="#ffffff"
     bordercolor="#666666"
     borderopacity="1.0"
     inkscape:pageopacity="0.0"
     inkscape:pageshadow="2"
     inkscape:zoom="14.481547"
     inkscape:cx="-0.9588692"
     inkscape:cy="26.583247"
     inkscape:document-units="mm"
     inkscape:current-layer="svg8"
     showgrid="false"
     inkscape:window-width="1920"
     inkscape:window-height="1001"
     inkscape:window-x="-9"
     inkscape:window-y="-9"
     inkscape:window-maximized="1"
     units="px"
     fit-margin-top="0"
     fit-margin-left="0"
     fit-margin-right="0"
     fit-margin-bottom="0" />
  <metadata
     id="metadata5">
    <rdf:RDF>
      <cc:Work
         rdf:about="">
        <dc:format>image/svg+xml</dc:format>
        <dc:type
           rdf:resource="http://purl.org/dc/dcmitype/StillImage" />
        <dc:title />
      </cc:Work>
    </rdf:RDF>
  </metadata>
  <path
     inkscape:connector-curvature="0"
     id="path105"
     d="m 22.694174,40.809423 c -0.01384,-0.04156 -0.05363,-0.358864 -0.08843,-0.705129 -0.158932,-1.581322 -0.747611,-3.188237 -1.687992,-4.607709 -0.363027,-0.547978 -1.0623,-1.397071 -1.242721,-1.508978 -0.08016,-0.04972 -0.167479,0.0075 -0.496678,0.325278 -0.527513,0.509271 -0.814818,0.639538 -1.409244,0.638967 -0.409596,-4.11e-4 -0.505117,-0.0229 -0.905972,-0.213482 -0.246454,-0.117174 -0.516885,-0.260662 -0.600956,-0.318864 -0.298961,-0.206968 -0.328744,-0.197591 -0.52159,0.164226 -0.583603,1.094948 -2.167164,2.820587 -3.421244,3.728197 -2.6567407,1.922754 -5.2379675,1.882482 -6.17558,-0.09635 C 5.8977322,37.696315 5.7881028,37.258745 5.7428904,36.615537 5.6403368,35.156592 6.1712043,33.117567 7.1069867,31.376134 7.4758416,30.689718 8.0799994,29.74878 8.3196958,29.487417 8.6977074,29.075234 8.7076601,29.134047 8.1756526,28.636297 7.2774985,27.795976 7.1254407,27.099756 7.6126641,26.058582 7.8195409,25.616497 7.82332,25.62236 7.1743673,25.378839 5.1549823,24.621062 2.7687997,24.487052 0.81916827,25.021925 0.18260399,25.196564 0.06521532,25.166619 0.17920998,24.858675 0.33753445,24.430986 2.300292,22.335121 3.2603343,21.5686 c 1.115068,-0.890298 2.370385,-1.617606 3.5484986,-2.055936 1.2118806,-0.450895 2.8071309,-0.676166 4.0063681,-0.565755 0.593279,0.05462 0.66724,0.05102 0.74997,-0.0365 0.05048,-0.0534 0.499636,-0.805368 0.998125,-1.67103 1.402891,-2.436224 2.952487,-5.012312 3.353954,-5.5757 0.749638,-1.051986 1.958682,-2.1760271 3.240989,-3.0131275 2.588644,-1.6898876 6.51281,-2.9077797 9.881473,-3.0667834 1.315758,-0.062105 1.628072,0.078627 1.934935,0.8719019 0.697094,1.8020579 1.096856,4.333571 1.097356,6.949042 6.49e-4,2.88802 -0.486724,5.145381 -1.541325,7.1404 -0.566436,1.071542 -1.093825,1.757272 -4.228698,5.498285 -0.852686,1.017559 -1.587539,1.909758 -1.633002,1.982665 -0.07625,0.122271 -0.06237,0.176339 0.178855,0.696798 0.323277,0.697499 0.644449,1.680611 0.767239,2.348534 0.124659,0.678088 0.169716,2.205333 0.08601,2.915135 -0.206704,1.752664 -0.826532,3.57741 -1.83377,5.398542 -0.57147,1.033245 -0.864757,1.459693 -1.01895,1.481589 -0.07097,0.01008 -0.140351,-0.01568 -0.154184,-0.05723 z M 11.292926,36.654287 c 0.588805,-0.202953 1.099179,-0.484711 1.705277,-0.941419 0.803648,-0.605568 1.974117,-1.865124 1.927552,-2.074263 -0.0246,-0.110476 -5.0265394,-3.642689 -5.0968511,-3.599234 -0.1145095,0.07077 -0.6377648,0.9293 -0.9019353,1.479847 -0.5189917,1.081617 -0.7523933,1.993798 -0.7513701,2.936529 0.00108,0.931978 0.211891,1.495755 0.7301148,1.951915 0.5603515,0.493239 1.4154437,0.58158 2.3872127,0.246625 z m 6.882927,-2.868715 c 0.447798,-0.273061 9.246211,-10.623085 10.694743,-12.580774 0.862886,-1.16619 1.522827,-2.770421 1.864221,-4.531671 0.456796,-2.356611 0.354368,-5.521519 -0.265073,-8.1905282 C 30.309103,7.790435 30.006142,6.8311368 29.911383,6.7145853 29.82173,6.6043156 28.31666,6.6646831 27.355778,6.8170892 c -3.36639,0.5339414 -6.234251,1.6514129 -8.382408,3.2662318 -0.718578,0.540172 -1.627369,1.435762 -2.081567,2.051329 -0.748141,1.013943 -3.68393,6.038258 -6.993258,11.968268 -1.6497881,2.956271 -1.6537943,2.966636 -1.3220811,3.42179 0.096518,0.132437 0.300211,0.339383 0.4526517,0.459881 0.621872,0.491561 7.8211694,5.551568 8.1437674,5.723824 0.405914,0.216744 0.732819,0.241893 1.00297,0.07716 z m 3.667084,-12.773177 c -1.956833,-0.221296 -3.567669,-1.708505 -3.962828,-3.658694 -0.129757,-0.640376 -0.08948,-1.635087 0.08923,-2.20336 0.397383,-1.263671 1.230934,-2.247867 2.375297,-2.804572 0.767257,-0.373252 1.122544,-0.452352 2.0318,-0.452352 0.893036,0 1.25936,0.07885 1.984551,0.427158 1.192551,0.572783 2.091473,1.659462 2.459203,2.97285 0.07908,0.282437 0.103964,0.57186 0.103345,1.201911 -8.65e-4,0.78706 -0.01047,0.857952 -0.187845,1.373612 -0.239218,0.695431 -0.552852,1.222854 -1.024457,1.722781 -0.995413,1.055189 -2.432637,1.583022 -3.868295,1.420666 z m 1.247279,-1.112301 c 1.475845,-0.312623 2.58515,-1.527671 2.76881,-3.032738 0.134097,-1.098917 -0.216773,-2.092638 -1.022727,-2.896527 -0.693507,-0.691731 -1.493568,-1.024813 -2.45758,-1.023145 -0.997764,0.0017 -1.751418,0.315049 -2.469936,1.026844 -0.99103,0.981759 -1.310065,2.347092 -0.852585,3.648705 0.291147,0.828364 0.951295,1.575936 1.73198,1.961349 0.775965,0.383082 1.508853,0.483531 2.302038,0.315512 z"
     style="fill:#333333;stroke-width:0.05723384" />
  <g
     id="flowRoot115"
     style="font-style:normal;font-weight:normal;font-size:40px;line-height:1.25;font-family:sans-serif;letter-spacing:-0.05px;word-spacing:0px;fill:#000000;fill-opacity:1;stroke:none"
     transform="matrix(0.49878796,0,0,0.49878796,-539.44172,59.593401)"
     aria-label="C#">
    <path
       inkscape:connector-curvature="0"
       id="path4650"
       style="font-size:13.33333397px;letter-spacing:0px;fill:#000000;fill-opacity:1"
       d="m 1114.8613,-65.082959 q -0.358,0.15625 -0.651,0.292969 -0.2865,0.136718 -0.7552,0.286458 -0.3972,0.123698 -0.8659,0.208333 -0.4622,0.09115 -1.0221,0.09115 -1.0547,0 -1.9206,-0.292969 -0.8594,-0.299479 -1.4974,-0.930989 -0.625,-0.61849 -0.9766,-1.569011 -0.3515,-0.957031 -0.3515,-2.220052 0,-1.197917 0.3385,-2.141927 0.3385,-0.944011 0.9766,-1.595052 0.6185,-0.631511 1.4909,-0.963542 0.8789,-0.332031 1.9466,-0.332031 0.7812,0 1.556,0.188802 0.7812,0.188802 1.7317,0.664062 v 1.529948 h -0.098 q -0.8008,-0.670573 -1.5886,-0.976562 -0.7877,-0.30599 -1.6862,-0.30599 -0.7356,0 -1.3281,0.240886 -0.5859,0.234375 -1.0482,0.735677 -0.4492,0.488281 -0.7031,1.236979 -0.2474,0.742187 -0.2474,1.71875 0,1.022135 0.2734,1.757813 0.28,0.735677 0.7162,1.197916 0.4557,0.481771 1.0612,0.716146 0.612,0.227865 1.2891,0.227865 0.9309,0 1.7447,-0.319011 0.8138,-0.31901 1.5235,-0.957031 h 0.091 z" />
    <path
       inkscape:connector-curvature="0"
       id="path4652"
       style="font-size:13.33333397px;letter-spacing:0px;fill:#000000;fill-opacity:1"
       d="m 1125.0371,-70.447543 h -2.168 l -0.5989,2.447917 h 2.0052 v 0.878906 h -2.2331 l -0.6771,2.740886 h -0.8398 l 0.6771,-2.740886 h -1.7578 l -0.6771,2.740886 h -0.8399 l 0.6771,-2.740886 h -1.9401 v -0.878906 h 2.168 l 0.5989,-2.447917 h -2.0052 v -0.878906 h 2.2331 l 0.6836,-2.747396 h 0.8398 l -0.6836,2.747396 h 1.7579 l 0.6836,-2.747396 h 0.8398 l -0.6836,2.747396 h 1.9401 z m -2.9883,-0.01302 h -1.7838 l -0.612,2.473959 h 1.7838 z" />
  </g>
</svg>
