<?xml version="1.0" encoding="UTF-8" standalone="no"?>
<svg
   xmlns:dc="http://purl.org/dc/elements/1.1/"
   xmlns:cc="http://creativecommons.org/ns#"
   xmlns:rdf="http://www.w3.org/1999/02/22-rdf-syntax-ns#"
   xmlns:svg="http://www.w3.org/2000/svg"
   xmlns="http://www.w3.org/2000/svg"
   xmlns:sodipodi="http://sodipodi.sourceforge.net/DTD/sodipodi-0.dtd"
   xmlns:inkscape="http://www.inkscape.org/namespaces/inkscape"
   viewBox="0 0 172 172"
   height="48"
   width="48"
   xml:space="preserve"
   id="svg2"
   version="1.1"
   sodipodi:docname="logo.svg"
   inkscape:version="0.92.3 (2405546, 2018-03-11)"><sodipodi:namedview
     pagecolor="#ffffff"
     bordercolor="#666666"
     borderopacity="1"
     objecttolerance="10"
     gridtolerance="10"
     guidetolerance="10"
     inkscape:pageopacity="0"
     inkscape:pageshadow="2"
     inkscape:window-width="1920"
     inkscape:window-height="1001"
     id="namedview13"
     showgrid="false"
     fit-margin-top="0"
     fit-margin-left="0"
     fit-margin-right="0"
     fit-margin-bottom="0"
     inkscape:zoom="7.0800003"
     inkscape:cx="36.30201"
     inkscape:cy="28.313229"
     inkscape:window-x="-9"
     inkscape:window-y="-9"
     inkscape:window-maximized="1"
     inkscape:current-layer="g884" /><metadata
     id="metadata8"><rdf:RDF><cc:Work
         rdf:about=""><dc:format>image/svg+xml</dc:format><dc:type
           rdf:resource="http://purl.org/dc/dcmitype/StillImage" /><dc:title /></cc:Work></rdf:RDF></metadata><defs
     id="defs6"><clipPath
       id="clipPath20"
       clipPathUnits="userSpaceOnUse"><path
         id="path18"
         d="M 0,4000 V 0 h 4363.64 v 4000 z"
         inkscape:connector-curvature="0" /></clipPath></defs><g
     id="g872"
     transform="matrix(0.96153846,0,0,0.96153846,-127.24359,-347.57692)"><g
       id="g884"
       transform="matrix(0.47677473,0,0,0.47677473,73.20562,202.44947)"><g
         transform="matrix(1.0281197,0,0,-1.0281197,88.454696,729.73793)"
         id="g10"
         style="fill:#ffffff;fill-opacity:1;stroke:none;stroke-width:8;stroke-linecap:round;stroke-linejoin:round;stroke-miterlimit:4;stroke-dasharray:none;stroke-opacity:1;paint-order:stroke fill markers"><g
           transform="scale(0.1)"
           id="g12"
           style="fill:#ffffff;fill-opacity:1;stroke:none;stroke-width:80;stroke-linecap:round;stroke-linejoin:round;stroke-miterlimit:4;stroke-dasharray:none;stroke-opacity:1;paint-order:stroke fill markers"><g
             id="g14"
             style="fill:#ffffff;fill-opacity:1;stroke:none;stroke-width:80;stroke-linecap:round;stroke-linejoin:round;stroke-miterlimit:4;stroke-dasharray:none;stroke-opacity:1;paint-order:stroke fill markers"><g
               clip-path="url(#clipPath20)"
               id="g16"
               style="fill:#ffffff;fill-opacity:1;stroke:none;stroke-width:80;stroke-linecap:round;stroke-linejoin:round;stroke-miterlimit:4;stroke-dasharray:none;stroke-opacity:1;paint-order:stroke fill markers"><path
                 id="path22"
                 style="fill:#ffffff;fill-opacity:1;fill-rule:nonzero;stroke:none;stroke-width:80;stroke-linecap:round;stroke-linejoin:round;stroke-miterlimit:4;stroke-dasharray:none;stroke-opacity:1;paint-order:stroke fill markers"
                 d="M 3029.49,2738.37 2744.94,2593.38 1370.57,1893.1 c -4.58,35.17 -6.94,70.86 -6.94,106.88 0,218.56 85.12,424.04 239.65,578.57 152.09,152.07 357.12,238 572.2,239.61 144.74,1.08 283.87,-35.15 406.52,-104.13 l 162.94,83 24.27,12.37 c -61.37,44.64 -127.6,82.16 -198.13,111.97 -123.34,52.19 -254.29,78.63 -389.26,78.63 -134.96,0 -265.93,-26.44 -389.27,-78.63 -119.08,-50.36 -226.04,-122.46 -317.84,-214.27 -91.8,-91.81 -163.9,-198.74 -214.28,-317.83 -52.16,-123.34 -78.61,-254.32 -78.61,-389.29 0,-25.52 0.96,-50.89 2.86,-76.13 5.5,-73.14 -33.37,-142.47 -98.74,-175.76 l -85.94,-43.8 v -204.06 l 252.93,128.87 c 0.06,-0.09 0.1,-0.21 0.13,-0.3 l 81.97,41.77 80.68,41.11 c -0.04,0.1 -0.07,0.21 -0.11,0.31 l 1448.74,738.17 162.81,82.96 336.48,171.45 v 204.05 l -334.14,-170.25"
                 inkscape:connector-curvature="0" /><path
                 id="path24"
                 style="fill:#ffffff;fill-opacity:1;fill-rule:nonzero;stroke:none;stroke-width:80;stroke-linecap:round;stroke-linejoin:round;stroke-miterlimit:4;stroke-dasharray:none;stroke-opacity:1;paint-order:stroke fill markers"
                 d="m 3363.64,2500.51 -1865.8,-950.68 -162.81,-82.95 -335.02,-170.71 v -204.06 l 332.67,169.52 284.57,144.98 L 2993,2107.6 c 4.62,-35.4 7.01,-71.32 7.01,-107.61 0,-218.54 -85.12,-424 -239.65,-578.53 -152.21,-152.21 -357.47,-238.14 -572.72,-239.64 -144.86,-0.99 -284.11,35.4 -406.79,104.59 l -10.45,-5.33 -176.64,-89.99 c 61.57,-44.87 128.01,-82.55 198.8,-112.48 123.34,-52.16 254.29,-78.61 389.26,-78.61 134.96,0 265.93,26.45 389.27,78.61 119.08,50.38 226.04,122.48 317.84,214.27 91.8,91.81 163.9,198.76 214.28,317.85 52.16,123.34 78.61,254.31 78.61,389.26 0,25.76 -0.98,51.38 -2.91,76.81 -5.55,73.16 33.34,142.51 98.74,175.82 l 85.99,43.82 v 204.07"
                 inkscape:connector-curvature="0" /></g></g></g></g><g
         aria-label="C#"
         transform="matrix(2.8499506,0,0,2.8499506,105.61645,-444.20973)"
         style="font-style:normal;font-weight:normal;font-size:40px;line-height:1.25;font-family:sans-serif;letter-spacing:0px;word-spacing:0px;fill:#ffffff;fill-opacity:1;stroke:#ffffff;stroke-width:0.68566185;stroke-linecap:round;stroke-linejoin:round;stroke-miterlimit:4;stroke-dasharray:none;stroke-opacity:1;paint-order:stroke fill markers"
         id="flowRoot854"><path
           d="m 110.12862,391.57387 q -0.70001,0.30546 -1.27277,0.57276 -0.56001,0.26726 -1.4764,0.56 -0.77639,0.24183 -1.69277,0.4073 -0.90366,0.17818 -1.99825,0.17818 -2.06188,0 -3.754656,-0.57275 -1.680039,-0.58547 -2.927355,-1.82005 -1.221851,-1.20913 -1.909148,-3.06737 -0.687296,-1.87096 -0.687296,-4.34013 0,-2.34188 0.66184,-4.1874 0.661841,-1.8455 1.90915,-3.11827 1.209124,-1.23458 2.914632,-1.88369 1.718243,-0.64911 3.805573,-0.64911 1.52731,0 3.0419,0.3691 1.52732,0.3691 3.38555,1.29822 v 2.99101 h -0.19091 q -1.5655,-1.31096 -3.10555,-1.90915 -1.54005,-0.59821 -3.29645,-0.59821 -1.43824,0 -2.59645,0.47092 -1.145486,0.4582 -2.049156,1.43824 -0.8782,0.95456 -1.374577,2.41824 -0.483646,1.45096 -0.483646,3.3601 0,1.99824 0.534554,3.43648 0.547292,1.43822 1.400039,2.34188 0.89093,0.94185 2.074606,1.40005 1.1964,0.44547 2.52008,0.44547 1.82005,0 3.411,-0.62366 1.59096,-0.62366 2.97828,-1.87097 h 0.17818 z"
           style="font-size:18.66666603px;fill:#ffffff;fill-opacity:1;stroke:#ffffff;stroke-width:0.68566185;stroke-linecap:round;stroke-linejoin:round;stroke-miterlimit:4;stroke-dasharray:none;stroke-opacity:1;paint-order:stroke fill markers"
           id="path1951"
           inkscape:connector-curvature="0" /><path
           d="m 130.02194,381.08628 h -4.2383 l -1.17095,4.78561 h 3.92012 v 1.71823 h -4.36558 l -1.32368,5.35834 h -1.64187 l 1.32368,-5.35834 h -3.43646 l -1.32369,5.35834 h -1.64186 l 1.32368,-5.35834 h -3.79285 v -1.71823 h 4.23832 l 1.17094,-4.78561 h -3.92011 v -1.71822 h 4.36558 l 1.3364,-5.37107 h 1.64187 l -1.33641,5.37107 h 3.43647 l 1.3364,-5.37107 h 1.64187 l -1.3364,5.37107 h 3.79283 z m -5.84199,-0.0254 h -3.48737 l -1.19641,4.8365 h 3.48738 z"
           style="font-size:18.66666603px;fill:#ffffff;fill-opacity:1;stroke:#ffffff;stroke-width:0.68566185;stroke-linecap:round;stroke-linejoin:round;stroke-miterlimit:4;stroke-dasharray:none;stroke-opacity:1;paint-order:stroke fill markers"
           id="path1953"
           inkscape:connector-curvature="0" /></g></g></g></svg>